<svg height="157" viewBox="0 0 340 157" width="340" xmlns="http://www.w3.org/2000/svg" xmlns:xlink="http://www.w3.org/1999/xlink"><radialGradient id="a" cx="15.769116%" cy="-8.178105%" gradientTransform="matrix(0 .999441 -1 0 .07591 -.239384)" r="100.050951%"><stop offset="0" stop-color="#20c6b7"/><stop offset="1" stop-color="#4d9abf"/></radialGradient><linearGradient id="b" x1="50%" x2="50%" y1="99.984331%" y2="0%"><stop offset="0" stop-color="#16a9d4"/><stop offset="1" stop-color="#29d8e1"/></linearGradient><linearGradient id="c" x1="36.785115%" x2="75.461339%" y1="72.421842%" y2="49.729221%"><stop offset="0" stop-color="#bf52fe"/><stop offset="1" stop-color="#fb52db"/></linearGradient><linearGradient id="d" x1="5.513535%" x2="85.230892%" y1="3.901274%" y2="86.504777%"><stop offset="0" stop-color="#42b1ff"/><stop offset=".84" stop-color="#7f5bff"/><stop offset="1" stop-color="#8b4bff"/></linearGradient><g fill="none" fill-rule="evenodd"><path d="m222.92 63.1200016c-12.506882.0040433-23.784505-7.5268077-28.573484-19.0804991-4.78898-11.5536914-2.146064-24.8545745 6.696207-33.6997062 8.84227-8.84513159 22.142298-11.4923489 33.697538-6.70710691 11.55524 4.785242 19.089739 16.06042811 19.089739 28.56731061-.04394 17.05451-13.855505 30.8705433-30.91 30.9200016zm0-57.4600035c-10.740292-.00404265-20.425086 6.4631744-24.537086 16.3851365-4.112 9.9219622-1.841131 21.344015 5.753403 28.9385486 7.594533 7.5945335 19.016586 9.8654032 28.938548 5.753403 9.921963-4.1120002 16.38918-13.7967946 16.385137-24.5370862-.016535-14.6507837-11.889218-26.52346722-26.540002-26.5400019z" fill="#231f20" fill-rule="nonzero" opacity=".1"/><path d="m188.07 141.77 16.87-59.77 43.31 44.48zm19-51.27-12.75 45.17 45.49-11.54z" fill="#231f20" fill-rule="nonzero" opacity=".1"/><path d="m114 107.58-65.25-26.48 26.49-65.26 65.26 26.49zm-59.55-28.89 57.15 23.2 23.2-57.15-57.15-23.2z" fill="#231f20" fill-rule="nonzero" opacity=".1"/><path d="m103.16 135.07-16.75-6.8 14.26-11.11zm-14.16-7.16 12.56 5.09-1.86-13.43z" fill="#3eb8ff" fill-rule="nonzero"/><path d="m257.67 144 7.87-44.26 34.4 28.95zm9.48-39.82-6.44 36.21 34.58-12.53z" fill="#3eb8ff" fill-rule="nonzero"/><path d="m37.49 82.27-15.74-39.07 39.06-15.74 15.74 39.06zm-11-37 13 32.3 32.3-13-13-32.3z" fill="#7ff9e9" fill-rule="nonzero"/><path d="m256.08 55-10.35-7.43 7.43-10.35 10.36 7.43zm-8.81-7.68 8.56 6.14 6.17-8.58-8.56-6.14z" fill="#cb62ff" fill-rule="nonzero"/><path d="m60.68 143.71c-10.4934102 0-19-8.50659-19-19s8.5065898-19 19-19 19 8.50659 19 19-8.5065898 19-19 19zm0-34.730003c-6.3590549-.004042-12.0942057 3.823447-14.5305142 9.697287-2.4363084 5.87384-1.0938414 12.636932 3.4012595 17.134894s11.2573371 5.844733 17.1327263 3.412163c5.8753892-2.432571 9.7065284-8.165285 9.7065284-14.524341-.0220063-8.665641-7.044347-15.683511-15.71-15.7z" fill="#fb53dc" fill-rule="nonzero"/><path d="m49.15 20.77c-3.8262128 0-7.2756721-2.304855-8.7399004-5.8398147-1.4642282-3.5349598-.6548708-7.60387441 2.0506702-10.30941545 2.7055411-2.70554104 6.7744557-3.51489849 10.3094155-2.05067023 3.5349597 1.46422826 5.8398147 4.91368754 5.8398147 8.73990038-.0055117 5.222329-4.237671 9.4544883-9.46 9.46zm0-17.28005763c-4.3149228.01661116-7.8009996 3.5250405-7.7900006 7.83998093.0110512 4.3149404 3.5150112 7.8055095 7.8299623 7.8000193 4.314951-.0055032 7.8100383-3.5049881 7.8100383-7.8199426 0-2.07920126-.8279921-4.0728088-2.3010214-5.54020872-1.4730293-1.46739991-3.4697926-2.28776776-5.5489786-2.27984891z" fill="#ffd600" fill-rule="nonzero"/><path d="m299.7 68c-6.730252 0-12.7978-4.0542058-15.373355-10.2721477-2.575556-6.2179418-1.151908-13.3751025 3.607098-18.1341091 4.759007-4.7590067 11.916167-6.1826545 18.134109-3.6070986 6.217942 2.5755558 10.272148 8.6431036 10.272148 15.3733554-.005517 9.1877323-7.452268 16.6344835-16.64 16.64zm0-30.43c-7.616007 0-13.79 6.1739933-13.79 13.79s6.173993 13.79 13.79 13.79 13.790015-6.1739933 13.790015-13.79c.005293-3.6626409-1.444596-7.1773778-4.030724-9.7710067-2.586127-2.593629-6.09665-4.0536928-9.759291-4.0589933z" fill="#ffd600" fill-rule="nonzero"/><path d="m237.25 23.44h1.04v10.92h-1.04z" fill="#fb53dc" fill-rule="nonzero"/><path d="m232.3 28.39h10.92v1.04h-10.92z" fill="#fb53dc" fill-rule="nonzero"/><path d="m279.7 22.63.1 1.85-11.19-6.23-.08-1.53 10.5-7 .1 1.85-8.85 5.85z" fill="#7ff9e9" fill-rule="nonzero"/><path d="m293.75 17-10.48 7.3-.1-1.85 8.83-6.17-9.4-4.9-.1-1.85 11.17 5.89z" fill="#7ff9e9" fill-rule="nonzero"/><circle cx="168.5" cy="74.14" fill="#fff" fill-rule="nonzero" opacity=".3" r="73.88"/><g opacity=".3" stroke="#fff" stroke-width=".82"><g transform="translate(96 62)"><path d="m104.11.32-38.47 39.86"/><path d="m99.1.32-38.48 39.86"/><path d="m94.08.32-38.48 39.86"/><path d="m89.06.32-38.47 39.86"/><path d="m84.04.32-38.47 39.86"/><path d="m79.02.32-38.47 39.86"/><path d="m74 .32-38.47 39.86"/><path d="m69.13.32-38.47 39.86"/><path d="m64.11.32-38.47 39.86"/><path d="m59.09.32-38.47 39.86"/><path d="m54.07.32-38.47 39.86"/><path d="m49.05.32-38.47 39.86"/><path d="m44.03.32-38.47 39.86"/><path d="m39.02.32-38.48 39.86"/><path d="m139.2.32-38.47 39.86"/><path d="m134.19.32-38.48 39.86"/><path d="m129.17.32-38.48 39.86"/><path d="m124.15.32-38.47 39.86"/><path d="m119.13.32-38.47 39.86"/><path d="m114.11.32-38.47 39.86"/><path d="m109.09.32-38.47 39.86"/></g><g transform="translate(201 62)"><path d="m103.62.32-38.47 39.86"/><path d="m98.6.32-38.47 39.86"/><path d="m93.58.32-38.47 39.86"/><path d="m88.56.32-38.47 39.86"/><path d="m83.54.32-38.47 39.86"/><path d="m78.52.32-38.47 39.86"/><path d="m73.51.32-38.48 39.86"/><path d="m68.63.32-38.47 39.86"/><path d="m63.61.32-38.47 39.86"/><path d="m58.6.32-38.48 39.86"/><path d="m53.58.32-38.48 39.86"/><path d="m48.56.32-38.47 39.86"/><path d="m43.54.32-38.47 39.86"/><path d="m38.52.32-38.47 39.86"/><path d="m138.71.32-38.47 39.86"/><path d="m133.69.32-38.47 39.86"/><path d="m128.67.32-38.47 39.86"/><path d="m123.65.32-38.47 39.86"/><path d="m118.63.32-38.47 39.86"/><path d="m113.61.32-38.47 39.86"/><path d="m108.6.32-38.48 39.86"/></g><g transform="translate(0 62)"><path d="m94.33.32-38.47 39.86"/><path d="m89.31.32-38.47 39.86"/><path d="m84.3.32-38.48 39.86"/><path d="m79.28.32-38.48 39.86"/><path d="m74.26.32-38.47 39.86"/><path d="m69.24.32-38.47 39.86"/><path d="m64.22.32-38.47 39.86"/><path d="m59.35.32-38.47 39.86"/><path d="m54.33.32-38.47 39.86"/><path d="m49.31.32-38.47 39.86"/><path d="m44.29.32-38.47 39.86"/><path d="m39.27.32-38.47 39.86"/><path d="m129.42.32-38.47 39.86"/><path d="m124.4.32-38.47 39.86"/><path d="m119.39.32-38.48 39.86"/><path d="m114.37.32-38.47 39.86"/><path d="m109.35.32-38.47 39.86"/><path d="m104.33.32-38.47 39.86"/><path d="m99.31.32-38.47 39.86"/></g></g><circle cx="168.5" cy="74" fill="#fff" fill-rule="nonzero" r="61.33"/><g fill="#0e1e25" fill-rule="nonzero" transform="translate(136 102)"><path d="m.49.57h.34l.86 2.18.86-2.18h.34v2.48h-.23v-2.14l-.85 2.14h-.22l-.85-2.14v2.14h-.23z"/><path d="m4.81.57h.26l1 2.48h-.25l-.3-.77h-1.13l-.3.77h-.25zm-.38 1.51h1l-.48-1.27z"/><path d="m9.08 3.05h-.17v-.45c-.15153407.32858696-.48876018.53092263-.85.51-.67123164-.05904136-1.18609214-.62117673-1.18609214-1.295s.5148605-1.23595864 1.18609214-1.295c.48900373-.00797625.91203267.33890747 1 .82h-.24c-.07379706-.37357993-.40958546-.63711008-.79-.62-.54531968.07403664-.95201351.53967739-.95201351 1.09s.40669383 1.01596336.95201351 1.09c.23917322.01022876.47087341-.08457085.63428332-.25951558s.24221002-.41256309.21571668-.65048442h-.88v-.2h1z"/><path d="m11 .57h.26l1 2.48h-.25l-.3-.77h-1.13l-.3.77h-.28zm-.38 1.51h1l-.48-1.27z"/><path d="m13 .57h1.79v.21l-1.63 2.07h1.66v.2h-1.93v-.2l1.63-2.07h-1.52z"/><path d="m15.82.57h.24v2.48h-.24z"/><path d="m17.26.57h.27l1.44 2.1v-2.1h.24v2.48h-.21l-1.49-2.05v2.09h-.24z"/><path d="m20.41.57h1.71v.21h-1.48v.89h1.36v.2h-1.39v1h1.5v.2h-1.73z"/></g><path d="m26.24 3.1c.0073464-1.00498321.6977827-1.87597671 1.6745675-2.11248633.9767847-.23650962 1.9891774.2221766 2.4554325 1.11248633l-.81.26c-.3654852-.53207175-1.0546391-.73392346-1.6494285-.48311413s-.9313299.88517328-.8054798 1.51829375c.1258502.63312046.679415 1.09055143 1.3249083 1.09482038.3883099-.01183967.7526977-.1903897 1-.49l-.48.08-.58-.58 1.25-.21 1.26-.2-.21 1.25-.2 1.25-.58-.58v-.34c-.4100327.41241462-.9684471.64298575-1.55.64-1.1820083-.0485578-2.1118007-1.02705361-2.1-2.21zm-25.32.65c-.00600838.23869638.04543612.47534107.15.69.09642864.18466174.23313124.3452873.4.47.17587426.12354078.37224081.21495279.58.27.22519822.05941752.45709537.08966497.69.09001593.25995898.00083976.51888321-.03278676.77-.10001593.20063179-.05952899.3875382-.15807964.55-.29.15116167-.1114196.27158487-.2593681.35-.43.07286993-.17419627.11026599-.36117655.11-.55.00747115-.20517408-.04839131-.40767553-.16-.58-.09262858-.14686534-.21123037-.27563299-.35-.38-.13333271-.08390396-.27819089-.14791106-.43-.19-.10665152-.04114918-.21722449-.07130545-.33-.09l-.65-.17c-.13333592-.03259661-.26377329-.07607574-.39-.13-.07445385-.0340268-.13962287-.08547602-.19-.15-.01693555-.06559112-.01693555-.13440888 0-.2-.00315006-.08090939.01772748-.16093998.06-.23.03959069-.05942574.09057426-.11040931.15-.15.06491209-.0384753.13594147-.06553411.21-.08.07300042-.00988206.14699958-.00988206.22 0 .1063918-.01082952.2136082-.01082952.32 0 .09271558.01474939.18129657.048819.26.1.07941235.04623513.14235642.11617298.18.2.05481623.09445419.0857129.20087606.09.31h.91c.00621208-.21953075-.04552429-.43682348-.15-.63-.08653278-.17128763-.21353589-.31888584-.37-.43-.1703709-.11366183-.36019598-.19501543-.56-.24-.20964431-.04955565-.42460015-.07306644-.64-.07-.19222936-.00144387-.3838321.02208629-.57.07-.18210519.05123874-.35444588.13234023-.51.24-.15388516.10865706-.28332653.24831748-.38.41-.09214463.1754693-.13695142.37192985-.13.57-.00555382.17213854.02866627.34323897.1.5.07530278.13293766.17747309.24873068.3.34.12253187.09408369.25704762.17143024.4.23.15379897.05580283.31073437.10254955.47.14l.46.12c.13934057.03439857.27629631.07782356.41.13.10626766.04293756.20436292.10382427.29.18.07362279.07422766.11341179.17550875.11.28.00221448.09615011-.02576358.19057608-.08.27-.05831786.06713726-.1297919.12159368-.21.16-.08678328.03890374-.17723113.06905302-.27.09h-.27c-.11947761.01583506-.24052239.01583506-.36 0-.1105701-.02862102-.2154199-.07597254-.31-.14-.0843893-.06339408-.15286291-.14556241-.2-.24-.05551653-.11528341-.08293182-.24207911-.08-.37zm10.44-1.75.54 1.57h-1.11zm-2.08 3.17v-4.27h-1.28l-1 2.94-1-2.94h-1.32v4.27h.88v-3l1.05 3h.72l1.06-3v3h1.81l.33-1h1.6l.33 1h1l-1.6-4.27h-1zm3.87-1.37c-.0137768.238236.0344598.47597325.14.69.0964286.18466174.2331312.3452873.4.47.1795321.12351412.3791714.2148745.59.27.224952.06066279.4570139.09093173.69.09002087.2566729.00090043.5123017-.03273495.76-.10002087.2036697-.05952868.3938519-.15801586.56-.29.1455169-.11465605.261993-.26196402.34-.43.0775249-.17273991.115123-.36073052.11-.55.010447-.20411942-.0419028-.40653857-.15-.58-.0932136-.14959574-.2156575-.27884217-.36-.38-.1323763-.08568816-.2775157-.14981952-.43-.19-.1066515-.04114918-.2172245-.07130545-.33-.09l-.65-.17c-.1328741-.03418026-.2631926-.07761976-.39-.13-.0736275-.03091211-.1363176-.08315387-.18-.15-.0173846-.06553332-.0173846-.13446668 0-.2-.0031501-.08090939.0177275-.16093998.06-.23.0395907-.05942574.0905743-.11040931.15-.15.0649121-.0384753.1359415-.06553411.21-.08.0763208-.01029818.1536792-.01029818.23 0 .1030484-.01085191.2069516-.01085191.31 0 .0953658.01651273.1868855.05040891.27.1.0746038.05191249.1362057.12035895.18.2.046776.09707325.0739607.20241403.08.31h.91c.0045572-.2181911-.0434614-.43427465-.14-.63-.0933305-.169656-.2231106-.31651236-.38-.43-.1666726-.11376121-.3532461-.19517509-.55-.24-.2098256-.04849494-.4246524-.07199163-.64-.07-.1955228-.00141504-.390428.022108-.58.07-.1821052.05123874-.3544459.13234023-.51.24-.1508631.10904883-.2769558.24877314-.37.41-.0951837.17469222-.1434215.37108893-.14.57-.002428.17292403.0352222.34406125.11.5.0697818.13375798.1689236.2499933.29.34.126087.09416417.2639159.17148282.41.23.1499427.05715647.3036386.10393349.46.14.1541284.04935465.3110765.08942651.47.12.1360889.03434477.269722.07777551.4.13.1072632.04095272.2056998.10205127.29.18.0782089.07115248.1188647.17464003.11.28.0069425.0967218-.0214873.19267233-.08.27-.0583179.06713726-.1297919.12159368-.21.16-.0855909.04188893-.1763939.07215661-.27.09h-.32c-.1195468.01474937-.2404532.01474937-.36 0-.1076428-.0281424-.2092882-.0755769-.3-.14-.0875334-.06277681-.1593982-.14490798-.21-.24-.0517196-.11623328-.0756848-.24290642-.07-.37zm3.75 1.42h.94v-1.84h1.73v1.84h.94v-4.32h-.94v1.64h-1.73v-1.64h-.94zm4 0h.94v-4.32h-.94zm1.37 0h.88v-2.91l1.78 2.86h.94v-4.27h-.87v2.87l-1.79-2.87h-.93z" fill="#0e1e25" fill-rule="nonzero" transform="translate(135 96)"/><path d="m134.3 103.11-1.67-7.23c-.138762-.5857163-.722527-.9511264-1.31-.82l-1.22.28.42.08c.545421.1225374 1.073004.3140802 1.57.57l-.7 1.88c-.634456-.4856595-1.422384-.7270068-2.22-.68-.84 0-1.27.34-1.27 1 .013725.2942744.1706.563203.42.72.561031.3582175 1.161709.6501674 1.79.87.542165.1992522 1.051213.47906 1.51.83.168203.141388.322261.298795.46.47.406251.529605.618088 1.182771.6 1.85.023159.646304-.182203 1.280095-.58 1.79l1.38-.31c.580956-.138826.944959-.715904.82-1.3z" fill="#0e1e25" fill-rule="nonzero"/><path d="m129.73 102.14c-.507411-.377897-1.066447-.680989-1.66-.9-.446979-.179429-.872872-.407467-1.27-.68-.866846-.509658-1.405096-1.4345395-1.42-2.44-.018367-.5884497.169062-1.1648824.53-1.63.06-.08.13-.15.2-.23l-2 .47c-.575097.1298207-.945586.6899638-.84 1.27l1.73 7.27c.064236.280233.237556.523287.481567.675325.244011.152037.538571.200508.818433.134675l.83-.19h-.13c-.557664-.168882-1.094415-.400356-1.6-.69l.86-1.94c.693733.567505 1.56373.875187 2.46.87.94 0 1.41-.34 1.42-1 .020331-.375065-.130444-.73913-.41-.99z" fill="#0e1e25" fill-rule="nonzero"/><path d="m187.23 98.36v.66c.404733-.4980892 1.018488-.7790858 1.66-.76 1.18 0 1.79.68 1.81 2v3.76h-1.28v-3.69c.022141-.28566-.059525-.5697174-.23-.8-.208289-.1917596-.4881-.2862415-.77-.26-.48834-.0157855-.939722.2589686-1.15.7v4h-1.27v-5.7zm7.3 5.81c-.745144.035128-1.470795-.244248-2-.77-.505403-.540785-.775199-1.26024-.75-2v-.16c-.008928-.525359.104028-1.045639.33-1.52.199798-.4308738.519117-.7953149.92-1.05.395601-.2469424.853683-.3753442 1.32-.37.681411-.0404823 1.344095.2319544 1.8.74.453091.602786.67646 1.347349.63 2.1v.52h-3.68c.015248.418068.182341.816248.47 1.12.26626.263136.625655.410488 1 .41.560781.009003 1.090734-.255973 1.42-.71l.69.65c-.225628.343861-.540065.620289-.91.8-.400824.186506-.837914.282119-1.28.280034zm-.15-4.88c-.322413-.010439-.633159.1211709-.85.36-.225849.2893901-.367695.635357-.41 1h2.43v-.09c.008094-.362991-.112327-.7171695-.34-1-.225716-.2038783-.527533-.3020598-.83-.27zm5-2.31v1.38h1v1h-1v3.18c-.013514.167101.032537.333595.13.47.124838.113464.292273.168062.46.15.149639.014709.300361.014709.45 0v1c-.273306.077702-.555869.118068-.84.12-1 0-1.47-.54-1.47-1.63v-3.23h-.94v-1h.94v-1.42zm3.34 7.08h-1.28v-8.06h1.28zm2.75 0h-1.28v-5.7h1.28zm-1.36-7.18c-.006042-.182393.062577-.3593587.19-.49.141616-.1358095.334354-.2049044.53-.19.198361-.0128277.393375.0557885.54.19.123677.133018.191674.3083765.19.49.002711.1818112-.065429.357543-.19.49-.148894.1303761-.342271.1984162-.54.19-.194965.0100843-.385847-.0583448-.53-.19-.128436-.1299873-.197232-.3074067-.19-.49zm3.2 7.18v-4.75h-.87v-1h.87v-.52c-.029939-.5367759.157484-1.0630028.52-1.46.39947-.365071.929829-.5526809 1.47-.52.243402.0008481.48558.0344839.72.1v1c-.162757-.0193999-.327243-.0193999-.49 0-.25673-.03474-.514777.0538855-.695987.2390344-.181209.1851489-.264265.4450422-.224013.7009656v.5h1.16v1h-1.17v4.75zm5.35-1.83 1.16-3.87h1.36l-2.26 6.57c-.192433.826056-.921951 1.41544-1.77 1.43-.206385-.003308-.411453-.033564-.61-.09v-1h.24c.254994.01934.509785-.039995.73-.17.183096-.153996.315522-.359606.38-.59l.19-.49-2-5.68h1.38z" fill="#0e1e25"/><g fill-rule="nonzero"><path d="m179.59 98.71.24-1.42 1.08 1.09-1.13.48c-.052078-.0628073-.116821-.1139204-.19-.15zm1.58-.09 1.16 1.17c.169271.1370265.308786.307167.41.5v.06l-2.74-1.18zm1.53 2.1c-.101362.160863-.226056.305778-.37.43l-1.33 1.31-1.69-.35c-.016494-.141708-.088396-.271131-.2-.36l.32-2c.136348-.0160901.259691-.0886448.34-.2l2.89 1.22zm-2 2-2.15 2.15.37-2.26c.079746-.034717.151296-.085824.21-.15l1.52.31zm-2.61 2.61-.24.24-2.68-3.88 3 .61c.04479.160058.158363.29195.31.36.04.22-.28 2.18-.37 2.71zm-.51.51c-.105779.132258-.243414.235484-.4.3-.116602.040385-.243398.040385-.36 0-.14 0-.26-.16-.5-.4l-2.7-2.7.71-1.09c.157833.059948.332167.059948.49 0l2.69 3.92zm-4.22-3.06-.61-.61 1.22-.53c-.002872.019897-.002872.040103 0 .06l-.68 1zm-.89-.89-.78-.78-.3-.31 2.38.49zm-1.21-1.49c-.005532-.049847-.005532-.100153 0-.15.101214-.192833.240729-.3629735.41-.5l1-1 1.39 2c-.042268.049258-.079144.102896-.11.16l-2.68-.56zm1.7-1.92 1.34-1.35 1 .43.69.29c-.047768.1969277.008868.4045905.15.55l-1.36 2.11c-.052941-.009145-.107059-.009145-.16 0h-.16l-1.46-1.99zm1.62-1.62 1.74-1.74c.137026-.1692708.307167-.308786.5-.41.116602-.0403847.243398-.0403847.36 0 .192833.101214.362974.2407292.5.41l.38.38-1.24 1.91c-.19649-.0600431-.409963-.0188465-.57.11zm3.74-1.1 1.15 1.14-.28 1.71c-.058338.0200753-.112549.0505692-.16.09l-1.77-.7c-.009231-.0971774-.043704-.1902538-.1-.27zm-1.18 2.58 1.64.69v.08l-3.64 1.55 1.35-2.08h.1c.203648-.0022752.393635-.1028563.51-.27zm-1.87 2.75 3.68-1.57h.06l-.32 1.94c-.169804.009753-.323571.103513-.41.25l-2.94-.61z" fill="url(#a)"/><g transform="translate(87 6)"><g fill="#7ff9e9"><path d="m93.046169 130.165659h55.4v1h-55.4z" transform="matrix(.69440723 -.71958224 .71958224 .69440723 -57.060769 126.789776)"/><path d="m88.030245 130.157962h55.4v1h-55.4z" transform="matrix(.69440723 -.71958224 .71958224 .69440723 -58.58806 123.178054)"/><path d="m83.004321 130.160265h55.4v1h-55.4z" transform="matrix(.69440723 -.71958224 .71958224 .69440723 -60.125604 119.562192)"/><path d="m77.988396 130.162568h55.4v1h-55.4z" transform="matrix(.69440723 -.71958224 .71958224 .69440723 -61.660091 115.953525)"/><path d="m72.972472 130.164871h55.4v1h-55.4z" transform="matrix(.69440723 -.71958224 .71958224 .69440723 -63.194578 112.344859)"/><path d="m67.946548 130.167173h55.4v1h-55.4z" transform="matrix(.69440723 -.71958224 .71958224 .69440723 -64.732121 108.728997)"/><path d="m62.930624 130.169476h55.4v1h-55.4z" transform="matrix(.69440723 -.71958224 .71958224 .69440723 -66.266608 105.120331)"/></g><path d="m58.05886 130.163842h55.4v1h-55.4z" fill="#3eb8ff" transform="matrix(.69440723 -.71958224 .71958224 .69440723 -67.75133 101.612974)"/><path d="m53.042936 130.166145h55.4v1h-55.4z" fill="#3eb8ff" transform="matrix(.69440723 -.71958224 .71958224 .69440723 -69.285817 98.004308)"/><path d="m48.017012 130.168447h55.4v1h-55.4z" fill="#3eb8ff" transform="matrix(.69440723 -.71958224 .71958224 .69440723 -70.82336 94.388446)"/><path d="m43.008032 130.163555h55.4v1h-55.4z" fill="#3eb8ff" transform="matrix(.69440723 -.71958224 .71958224 .69440723 -72.350548 90.782577)"/><path d="m37.992107 130.165857h55.4v1h-55.4z" fill="#3eb8ff" transform="matrix(.69440723 -.71958224 .71958224 .69440723 -73.885035 87.173911)"/><path d="m32.966183 130.16816h55.4v1h-55.4z" fill="#3eb8ff" transform="matrix(.69440723 -.71958224 .71958224 .69440723 -75.422578 83.558049)"/><path d="m27.950259 130.170463h55.4v1h-55.4z" fill="#3eb8ff" transform="matrix(.69440723 -.71958224 .71958224 .69440723 -76.957065 79.949383)"/><path d="m128.132919 130.155519h55.4v1h-55.4z" fill="#ffd600" transform="matrix(.69440723 -.71958224 .71958224 .69440723 -46.331215 152.034479)"/><path d="m123.116995 130.157821h55.4v1h-55.4z" fill="#ffd600" transform="matrix(.69440723 -.71958224 .71958224 .69440723 -47.865702 148.425813)"/><path d="m118.09107 130.160124h55.4v1h-55.4z" fill="#ffd600" transform="matrix(.69440723 -.71958224 .71958224 .69440723 -49.403245 144.80995)"/><path d="m113.075146 130.162427h55.4v1h-55.4z" fill="#ffd600" transform="matrix(.69440723 -.71958224 .71958224 .69440723 -50.937733 141.201284)"/><path d="m108.059222 130.16473h55.4v1h-55.4z" fill="#ffd600" transform="matrix(.69440723 -.71958224 .71958224 .69440723 -52.47222 137.592618)"/><path d="m103.033298 130.167033h55.4v1h-55.4z" fill="#ffd600" transform="matrix(.69440723 -.71958224 .71958224 .69440723 -54.009763 133.976756)"/><path d="m98.017373 130.169336h55.4v1h-55.4z" fill="#ffd600" transform="matrix(.69440723 -.71958224 .71958224 .69440723 -55.544251 130.368089)"/><path d="m57.691073 20.545027h55.4v1h-55.4z" fill="#fb53dc" transform="matrix(.69440723 -.71958224 .71958224 .69440723 11.016029 67.849604)"/><path d="m52.675149 20.53733h55.4v1h-55.4z" fill="#fb53dc" transform="matrix(.69440723 -.71958224 .71958224 .69440723 9.488738 64.237882)"/><path d="m47.17588 20.364329h55.24744v1h-55.24744z" fill="#fb53dc" transform="matrix(.69190537 -.7219882 .7219882 .69190537 8.04735 60.40454)"/><path d="m42.6333 20.541935h55.4v1h-55.4z" fill="#fb53dc" transform="matrix(.69440723 -.71958224 .71958224 .69440723 6.416708 57.013353)"/><path d="m37.617376 20.544238h55.4v1h-55.4z" fill="#fb53dc" transform="matrix(.69440723 -.71958224 .71958224 .69440723 4.88222 53.404687)"/><path d="m32.18448 20.377529h55.24744v1h-55.24744z" fill="#fb53dc" transform="matrix(.69190537 -.7219882 .7219882 .69190537 3.41905 49.584993)"/><path d="m27.575527 20.548844h55.4v1h-55.4z" fill="#fb53dc" transform="matrix(.69440723 -.71958224 .71958224 .69440723 1.810189 46.180159)"/><path d="m22.703764 20.543209h55.4v1h-55.4z" fill="#3eb8ff" transform="matrix(.69440723 -.71958224 .71958224 .69440723 .325469 42.672802)"/><path d="m17.68784 20.545512h55.4v1h-55.4z" fill="#3eb8ff" transform="matrix(.69440723 -.71958224 .71958224 .69440723 -1.209019 39.064136)"/><path d="m12.668859 20.540619h55.4v1h-55.4z" fill="#3eb8ff" transform="matrix(.69440723 -.71958224 .71958224 .69440723 -2.739262 35.451072)"/><path d="m7.652935 20.542922h55.4v1h-55.4z" fill="#3eb8ff" transform="matrix(.69440723 -.71958224 .71958224 .69440723 -4.273749 31.842406)"/><path d="m2.637011 20.545225h55.4v1h-55.4z" fill="#3eb8ff" transform="matrix(.69440723 -.71958224 .71958224 .69440723 -5.808237 28.233739)"/><path d="m-2.388914 20.547528h55.4v1h-55.4z" fill="#3eb8ff" transform="matrix(.69440723 -.71958224 .71958224 .69440723 -7.34578 24.617877)"/><path d="m-7.63552 20.387529h55.24744v1h-55.24744z" fill="#3eb8ff" transform="matrix(.69190537 -.7219882 .7219882 .69190537 -8.856498 20.838504)"/><path d="m92.777823 20.534886h55.4v1h-55.4z" fill="#cb62ff" transform="matrix(.69440723 -.71958224 .71958224 .69440723 21.745584 93.094307)"/><path d="m87.761898 20.537189h55.4v1h-55.4z" fill="#cb62ff" transform="matrix(.69440723 -.71958224 .71958224 .69440723 20.211096 89.48564)"/><path d="m82.735974 20.539492h55.4v1h-55.4z" fill="#cb62ff" transform="matrix(.69440723 -.71958224 .71958224 .69440723 18.673553 85.869779)"/><path d="m77.72005 20.541795h55.4v1h-55.4z" fill="#cb62ff" transform="matrix(.69440723 -.71958224 .71958224 .69440723 17.139066 82.261112)"/><path d="m72.704126 20.544097h55.4v1h-55.4z" fill="#cb62ff" transform="matrix(.69440723 -.71958224 .71958224 .69440723 15.604579 78.652445)"/><path d="m67.11658 20.362729h55.24744v1h-55.24744z" fill="#cb62ff" transform="matrix(.69190537 -.7219882 .7219882 .69190537 14.192128 74.800997)"/><path d="m62.669221 20.541507h55.4v1h-55.4z" fill="#cb62ff" transform="matrix(.69440723 -.71958224 .71958224 .69440723 12.539848 71.430715)"/></g><path d="m137.2 113.96h1v10.35h-1z" fill="#3eb8ff"/><path d="m132.51 118.65h10.35v1h-10.35z" fill="#3eb8ff"/><path d="m80.7 5.4h1v7.55h-1z" fill="#3eb8ff"/><path d="m77.28 8.81h7.55v1h-7.55z" fill="#3eb8ff"/><path d="m113.86 7.16v.84l-5-3.1v-.69l5.07-2.88v.83l-4.31 2.41z" fill="#cb62ff"/><path d="m120.55 5-5.07 3v-.83l4.27-2.55-4.24-2.45v-.84l5 2.94z" fill="#cb62ff"/><circle cx="113.91" cy="42.91" fill="url(#b)" r="31.91"/><path d="m101.59 48.47h6.33v.42c-.000004.8583847.341671 1.6814669.949578 2.2874977s1.432041.9451598 2.290422.9425023c.858381.0026575 1.682515-.3364715 2.290422-.9425023s.949582-1.429113.949578-2.2874977v-20.41h6v20.27c-.005518 4.7402203-3.849776 8.58-8.59 8.58h-2.2c-4.418278 0-8-3.581722-8-8 .027069-.2864595.020357-.5751085-.02-.86z" fill="#fcfbff"/><path d="m179.08 26.54-32.79 56.79h65.57z" fill="url(#c)"/><path d="m182.49 48.17h-6.85l-10.53 28.51h6.89l1.89-5.46h10.23l2 5.66h6.85zm-6.85 18.08 3.47-9.83 3.38 9.83z" fill="#fcfbff"/><path d="m213.51 19.99h50.24v50.24h-50.24z" fill="url(#d)"/><path d="m224.52 57.59h5.94v-16.89l6.22 16.7h3.8l6.41-16.33v16.8l5.84-.19v-25.33h-7.33l-6.77 16.33-6.63-16.33h-7.33s-.08 25.17-.15 25.24z" fill="#fff"/><path d="m152.33 63.58c-.201704-.0820466-.362491-.2409511-.446907-.4416745-.084417-.2007235-.085529-.4267808-.003093-.6283255.081785-.2016886.241293-.36198.442579-.4447517.201285-.0827716.427412-.0810591.627421.0047517.200991.0799595.36165.2369903.446179.4361031s.085905.4237638.003821.6238969c-.123808.3105519-.425693.5131326-.76.51-.106174-.0004632-.211321-.0208143-.31-.06zm-2.52-1c-.200991-.0799595-.36165-.2369903-.446179-.4361031s-.085905-.4237638-.003821-.6238969c.082047-.2017037.240951-.3624909.441675-.4469073.200723-.0844164.42678-.0855291.628325-.0030927.201689.0817849.36198.2412931.444752.4425788.082771.2012856.081059.4274123-.004752.6274212-.122467.3071495-.419337.5090212-.75.51-.110869-.0103371-.217413-.0481431-.31-.11zm-2.53-.9999996c-.201704-.082047-.362491-.2409515-.446907-.4416749-.084417-.2007235-.085529-.4267808-.003093-.6283255.070038-.2126078.223948-.3873416.426015-.4836542.202068-.0963125.434726-.1058307.643985-.0263458.201704.0820466.362491.2409511.446907.4416745.084417.2007235.085529.4267808.003093.6283255-.126067.3087193-.426533.5103479-.76.5100004-.106815-.0036369-.211986-.0273852-.31-.0700004zm-2.53-1.0000004c-.201689-.0817849-.36198-.2412931-.444752-.4425788-.082771-.2012856-.081059-.4274123.004752-.6274212.079675-.2009886.237309-.3611708.436994-.444059.199686-.0828882.424418-.081424.623006.004059.200991.0799595.36165.2369903.446179.4361031s.085905.4237638.003821.6238969c-.122467.3071495-.419337.5090212-.75.51-.116984-.0346421-.225808-.0924547-.32-.17z" fill="#29d8e1"/><path d="m131.21 85.66v1l-5.68-3.33v-.78l5.47-3.55v1l-4.61 2.91z" fill="#fb53dc"/><path d="m138.49 82.89-5.49 3.66v-1l4.6-3.07-4.78-2.58v-1l5.68 3.15z" fill="#fb53dc"/><path d="m250.11 111c-.000033-.448997.361037-.814524.81-.82.452873 0 .82.367127.82.82 0 .452873-.367127.82-.82.82-.448963-.005476-.810033-.371003-.81-.82zm-2.74 0c0-.452873.367127-.82.82-.82.452873 0 .82.367127.82.82 0 .452873-.367127.82-.82.82-.452873 0-.82-.367127-.82-.82zm-2.73 0c0-.452873.367127-.82.82-.82.452873 0 .82.367127.82.82 0 .452873-.367127.82-.82.82-.452873 0-.82-.367127-.82-.82zm-2.73 0c0-.452873.367127-.82.82-.82.452873 0 .82.367127.82.82 0 .452873-.367127.82-.82.82-.452873 0-.82-.367127-.82-.82zm-2.73 0c0-.452873.367127-.82.82-.82.452873 0 .82.367127.82.82 0 .452873-.367127.82-.82.82-.452873 0-.82-.367127-.82-.82zm-2.73 0c0-.452873.367127-.82.82-.82.452873 0 .82.367127.82.82 0 .452873-.367127.82-.82.82-.452873 0-.82-.367127-.82-.82zm-2-.71c0-.452873.367127-.82.82-.82.452873 0 .82.367127.82.82 0 .452873-.367127.82-.82.82-.217496.00537-.42821-.075914-.585755-.225957s-.249005-.356544-.254245-.574043zm16.39-1.29c0-.452873.367127-.82.82-.82.452873 0 .82.367127.82.82 0 .452873-.367127.82-.82.82-.452873 0-.82-.367127-.82-.82zm-16.41-1.44c0-.452873.367127-.82.82-.82.452873 0 .82.367127.82.82 0 .452873-.367127.82-.82.82-.445177.000132-.809142-.354956-.82-.8zm16.41-1.29c0-.452873.367127-.82.82-.82.452873 0 .82.367127.82.82 0 .452873-.367127.82-.82.82-.445177.000132-.809142-.354956-.82-.8zm-16.41-1.44c0-.452873.367127-.82.82-.82.452873 0 .82.367127.82.82-.005476.448963-.371003.810033-.82.81-.441412.000296-.803851-.348884-.82-.79zm16.41-1.29c0-.452873.367127-.82.82-.82.452873 0 .82.367127.82.82 0 .452873-.367127.82-.82.82-.445177.000132-.809142-.354956-.82-.8zm-16.41-1.44c0-.452873.367127-.82.82-.82.452873 0 .82.367127.82.82-.005476.448963-.371003.810033-.82.81-.441412.000296-.803851-.348884-.82-.79zm16.41-1.29c-.002712-.218298.082809-.428447.237181-.582819s.364521-.2398931.582819-.237181c.452873 0 .82.367127.82.82 0 .452873-.367127.82-.82.82-.445177.000132-.809142-.354956-.82-.8zm-16.41-1.45c.005476-.4489634.371003-.8100334.82-.81.448997-.0000334.814524.3610366.82.81 0 .4528735-.367127.82-.82.82-.445177.000132-.809142-.3549558-.82-.8zm16.41-1.28c-.002712-.2182976.082809-.4284473.237181-.582819s.364521-.2398931.582819-.237181c.452873 0 .82.3671265.82.82-.005476.4489634-.371003.8100334-.82.81-.443535.0056105-.809083-.3465638-.82-.79zm-16.41-1.45c0-.4528735.367127-.82.82-.82.452873 0 .82.3671265.82.82 0 .4528735-.367127.82-.82.82-.445177.0001324-.809142-.3549558-.82-.8zm16.41-1.29c-.000017-.2165692.086694-.424126.240768-.5763212s.362679-.2363525.579232-.2336788c.448997-.0000334.814524.3610366.82.81 0 .4528735-.367127.82-.82.82-.21483.0026686-.42192-.0801215-.575703-.2301541-.153784-.1500326-.241661-.3550153-.244297-.5698459zm-16.41-1.44c0-.4528735.367127-.82.82-.82.452873 0 .82.3671265.82.82 0 .4528735-.367127.82-.82.82-.445177.0001324-.809142-.3549558-.82-.8zm16.41-1.29c0-.4528735.367127-.82.82-.82.452873 0 .82.3671265.82.82 0 .4528735-.367127.82-.82.82-.21483.0026686-.42192-.0801215-.575703-.2301541-.153784-.1500326-.241661-.3550153-.244297-.5698459zm-16.41-1.44c0-.4528735.367127-.82.82-.82.452873 0 .82.3671265.82.82 0 .4528735-.367127.82-.82.82-.445177.0001324-.809142-.3549558-.82-.8zm16.41-1.29c0-.4528735.367127-.82.82-.82.452873 0 .82.3671265.82.82 0 .4528735-.367127.82-.82.82-.21483.0026686-.42192-.0801215-.575703-.2301541-.153784-.1500326-.241661-.3550153-.244297-.5698459zm-16.41-1.44c0-.4528735.367127-.82.82-.82.452873 0 .82.3671265.82.82 0 .4528735-.367127.82-.82.82-.445177.0001324-.809142-.3549558-.82-.8zm16.41-1.29c0-.4528735.367127-.82.82-.82.452873 0 .82.3671265.82.82 0 .4528735-.367127.82-.82.82-.21483.0026686-.42192-.0801215-.575703-.2301541-.153784-.1500326-.241661-.3550153-.244297-.5698459zm-16.41-1.44c0-.4528735.367127-.82.82-.82.452873 0 .82.3671265.82.82 0 .4528735-.367127.82-.82.82-.445177.0001324-.809142-.3549558-.82-.8zm16.41-1.29c0-.4528735.367127-.82.82-.82.452873 0 .82.3671265.82.82 0 .4528735-.367127.82-.82.82-.21483.0026686-.42192-.0801215-.575703-.2301541-.153784-.1500326-.241661-.3550153-.244297-.5698459zm-16.41-1.42c0-.4528735.367127-.82.82-.82.452873 0 .82.3671265.82.82 0 .4528735-.367127.82-.82.82-.452873 0-.82-.3671265-.82-.82zm16.41-1.29c0-.4528735.367127-.82.82-.82.452873 0 .82.3671265.82.82 0 .4528735-.367127.82-.82.82-.452873 0-.82-.3671265-.82-.82zm-16.41-1.44c0-.4528735.367127-.82.82-.82.452873 0 .82.3671265.82.82 0 .4528735-.367127.82-.82.82-.452873 0-.82-.3671265-.82-.82zm16.41-1.27c0-.4528735.367127-.82.82-.82.452873 0 .82.3671265.82.82 0 .4528735-.367127.82-.82.82-.452873 0-.82-.3671265-.82-.82zm-16.41-1.44c0-.4528735.367127-.82.82-.82.452873 0 .82.3671265.82.82 0 .4528735-.367127.82-.82.82-.220988.0000657-.432647-.0890669-.587015-.2471998-.154368-.158133-.238375-.3718784-.232985-.5928002zm-2.23-.56c0-.4528735.367127-.82.82-.82.218298-.0027121.428447.0828093.582819.237181s.239893.3645214.237181.582819c0 .4528735-.367127.82-.82.82-.452873 0-.82-.3671265-.82-.82zm-2.73 0c0-.4528735.367127-.82.82-.82.452873 0 .82.3671265.82.82 0 .4528735-.367127.82-.82.82-.452873 0-.82-.3671265-.82-.82zm-2.73 0c0-.4528735.367127-.82.82-.82.452873 0 .82.3671265.82.82 0 .4528735-.367127.82-.82.82-.452873 0-.82-.3671265-.82-.82zm-2.74 0c0-.4528735.367127-.82.82-.82.452873 0 .82.3671265.82.82 0 .4528735-.367127.82-.82.82-.452873 0-.82-.3671265-.82-.82zm-2.73 0c0-.4528735.367127-.82.82-.82.452873 0 .82.3671265.82.82 0 .4528735-.367127.82-.82.82-.448963-.0054756-.810033-.3710032-.81-.82zm-2.73 0c0-.4528735.367127-.82.82-.82.452873 0 .82.3671265.82.82 0 .4528735-.367127.82-.82.82-.448963-.0054756-.810033-.3710032-.81-.82zm-2.73 0c0-.4528735.367127-.82.82-.82.452873 0 .82.3671265.82.82 0 .4528735-.367127.82-.82.82-.448963-.0054756-.810033-.3710032-.81-.82zm-2.73 0c0-.4528735.367127-.82.82-.82.452873 0 .82.3671265.82.82 0 .4528735-.367127.82-.82.82-.448963-.0054756-.810033-.3710032-.81-.82zm37.75-.79c0-.4528735.367127-.82.82-.82.452873 0 .82.3671265.82.82 0 .4528735-.367127.82-.82.82-.433831-.0047757-.788863-.3466583-.81-.78zm0-2.73c0-.4528735.367127-.82.82-.82.452873 0 .82.3671265.82.82 0 .4528735-.367127.82-.82.82-.433831-.0047757-.788863-.3466583-.81-.78z" fill="#7ff9e9"/><path d="m199.85 57.45v-2.34c2.135061-.0054957 3.864504-1.7349385 3.87-3.87v-10.8c-.000004-4.2210762 3.418927-7.6444823 7.64-7.65v2.34c-2.93035.005503-5.304497 2.3796504-5.31 5.31v10.8c.000004 3.4257868-2.774218 6.2044834-6.2 6.21z" fill="#ffd600"/></g></g></svg>