<?xml version="1.0" encoding="utf-8"?>
<!-- Generator: Adobe Illustrator 21.0.2, SVG Export Plug-In . SVG Version: 6.00 Build 0)  -->
<svg version="1.1" id="Layer_1" xmlns="http://www.w3.org/2000/svg" xmlns:xlink="http://www.w3.org/1999/xlink" x="0px" y="0px"
	 viewBox="0 0 130 18" style="enable-background:new 0 0 130 18;" xml:space="preserve">
<style type="text/css">
	.st0{fill:#FFFFFF;}
	.st1{fill:#E33A2C;}
</style>
<title>search-by-algolia</title>
<desc>Created with Sketch.</desc>
<path id="Shape" class="st0" d="M59.4,0h13.3c1.3,0,2.4,1.1,2.4,2.4v13.2c0,1.3-1.1,2.4-2.4,2.4H59.4c-1.3,0-2.4-1.1-2.4-2.4V2.4
	C57,1.1,58.1,0,59.4,0z"/>
<path id="Shape_1_" class="st1" d="M66.3,4.6c-2.8,0-5.1,2.3-5.1,5.1s2.3,5.1,5.1,5.1c2.8,0,5.1-2.3,5.1-5.1S69.1,4.6,66.3,4.6z
	 M66.3,13.2c-2,0-3.6-1.6-3.6-3.6s1.6-3.6,3.6-3.6c2,0,3.6,1.6,3.6,3.6S68.2,13.2,66.3,13.2z M66.3,6.8v2.7c0,0.1,0.1,0.1,0.2,0.1
	l2.4-1.2c0.1,0,0.1-0.1,0-0.1c-0.5-0.9-1.4-1.4-2.5-1.5C66.3,6.7,66.3,6.7,66.3,6.8z M62.9,4.8l-0.3-0.3c-0.3-0.3-0.8-0.3-1.1,0
	l-0.4,0.4c-0.3,0.3-0.3,0.8,0,1.1l0.3,0.3c0,0,0.1,0,0.2,0C61.8,6,62,5.8,62.2,5.6c0.2-0.2,0.5-0.4,0.7-0.6C63,5,63,4.9,62.9,4.8z
	 M67.9,4V3.4c0-0.4-0.4-0.8-0.8-0.8h-1.8c-0.4,0-0.8,0.3-0.8,0.8V4c0,0.1,0.1,0.1,0.1,0.1c0.5-0.1,1-0.2,1.6-0.2
	c0.5,0,1,0.1,1.5,0.2C67.9,4.2,67.9,4.1,67.9,4z"/>
<path id="Shape_2_" class="st0" d="M102.2,13.8c0,1.5-0.4,2.5-1.1,3.2c-0.8,0.7-1.9,1-3.4,1c-0.6,0-1.7-0.1-2.7-0.3l0.3-1.7
	c0.8,0.2,1.8,0.2,2.4,0.2c0.9,0,1.5-0.2,1.8-0.5c0.4-0.3,0.5-0.9,0.5-1.6v-0.3c-0.2,0.1-0.5,0.2-0.8,0.3c-0.3,0.1-0.7,0.2-1.2,0.2
	c-0.6,0-1.1-0.1-1.6-0.3c-0.5-0.2-0.9-0.5-1.3-0.8c-0.3-0.4-0.6-0.8-0.8-1.4c-0.2-0.5-0.3-1.5-0.3-2.2c0-0.7,0.1-1.5,0.3-2.1
	c0.2-0.6,0.5-1,0.9-1.4c0.4-0.4,0.9-0.7,1.4-0.9c0.6-0.2,1.2-0.4,1.9-0.4c0.7,0,1.3,0.1,2,0.2c0.6,0.1,1.2,0.2,1.6,0.3V13.8
	L102.2,13.8z M96.2,9.6c0,0.9,0.2,1.9,0.6,2.3c0.4,0.4,0.9,0.6,1.5,0.6c0.3,0,0.7,0,1-0.1c0.3-0.1,0.5-0.2,0.7-0.3V6.7
	c-0.2,0-0.8-0.2-1.4-0.2c-0.8,0-1.4,0.3-1.8,0.8C96.4,7.8,96.2,8.7,96.2,9.6z M112.3,9.6c0,0.7-0.1,1.3-0.3,1.9
	c-0.2,0.6-0.5,1.1-0.9,1.5c-0.4,0.4-0.9,0.7-1.4,1c-0.5,0.2-1.4,0.4-1.8,0.4c-0.4,0-1.3-0.1-1.8-0.4c-0.5-0.2-1-0.6-1.4-1
	c-0.4-0.4-0.7-0.9-0.9-1.5c-0.2-0.6-0.3-1.1-0.3-1.9c0-0.7,0.1-1.4,0.3-2s0.5-1.1,0.9-1.5c0.4-0.4,0.9-0.7,1.4-1
	c0.5-0.2,1.1-0.3,1.8-0.3s1.2,0.1,1.8,0.3c0.5,0.2,1,0.6,1.4,1c0.4,0.4,0.7,0.9,0.9,1.5C112.2,8.1,112.3,8.8,112.3,9.6z M110.1,9.6
	c0-0.9-0.2-1.7-0.6-2.2c-0.4-0.5-0.9-0.8-1.7-0.8c-0.7,0-1.3,0.3-1.7,0.8s-0.6,1.3-0.6,2.2c0,0.9,0.2,1.6,0.6,2.1
	c0.4,0.5,0.9,0.8,1.7,0.8c0.7,0,1.3-0.3,1.7-0.8C109.9,11.1,110.1,10.5,110.1,9.6z M117.1,14.3c-3.5,0-3.5-2.8-3.5-3.3l0-10.1
	l2.1-0.3v10c0,0.3,0,1.9,1.4,1.9V14.3z M120.9,14.3h-2.2V5.1l2.2-0.3V14.3z M119.8,3.7c0.7,0,1.3-0.6,1.3-1.3s-0.6-1.3-1.3-1.3
	c-0.7,0-1.3,0.6-1.3,1.3S119.1,3.7,119.8,3.7z M126.2,4.7c0.7,0,1.3,0.1,1.8,0.3c0.5,0.2,0.9,0.4,1.2,0.7c0.3,0.3,0.5,0.7,0.6,1.2
	c0.1,0.4,0.2,0.9,0.2,1.5v5.5c-0.3,0.1-0.8,0.2-1.5,0.3c-0.7,0.1-1.4,0.1-2.3,0.1c-0.6,0-1.1-0.1-1.5-0.2c-0.5-0.1-0.8-0.3-1.2-0.5
	c-0.3-0.2-0.6-0.5-0.8-0.9c-0.2-0.4-0.3-0.9-0.3-1.4c0-0.5,0.1-0.9,0.3-1.2c0.2-0.4,0.5-0.7,0.8-0.9c0.4-0.2,0.8-0.4,1.2-0.5
	c0.5-0.1,1-0.1,1.5-0.1c0.2,0,0.5,0,0.7,0c0.3,0,0.5,0.1,0.8,0.1V8.4c0-0.2,0-0.5-0.1-0.7c-0.1-0.2-0.2-0.4-0.3-0.6
	c-0.1-0.2-0.3-0.3-0.6-0.4c-0.2-0.1-0.5-0.2-0.9-0.2c-0.5,0-0.9,0.1-1.4,0.1c-0.4,0.1-0.8,0.2-1,0.2l-0.3-1.7
	c0.3-0.1,0.7-0.2,1.2-0.3C125.1,4.8,125.6,4.7,126.2,4.7z M126.4,12.5c0.7,0,1.1,0,1.5-0.1v-2.2c-0.1,0-0.3-0.1-0.5-0.1
	c-0.2,0-0.5-0.1-0.7-0.1c-0.2,0-0.5,0-0.7,0.1c-0.2,0-0.5,0.1-0.7,0.2c-0.2,0.1-0.4,0.2-0.5,0.4c-0.1,0.2-0.2,0.3-0.2,0.5
	c0,0.5,0.2,0.8,0.5,1C125.4,12.4,125.9,12.5,126.4,12.5z M84.1,4.8c0.7,0,1.3,0.1,1.8,0.3c0.5,0.2,0.9,0.4,1.2,0.7
	c0.3,0.3,0.5,0.7,0.6,1.2c0.1,0.4,0.2,0.9,0.2,1.5v5.5c-0.3,0.1-0.8,0.2-1.5,0.3c-0.7,0.1-1.4,0.1-2.3,0.1c-0.6,0-1.1-0.1-1.5-0.2
	c-0.5-0.1-0.8-0.3-1.2-0.5c-0.3-0.2-0.6-0.5-0.8-0.9c-0.2-0.4-0.3-0.9-0.3-1.4c0-0.5,0.1-0.9,0.3-1.2c0.2-0.4,0.5-0.7,0.8-0.9
	c0.4-0.2,0.8-0.4,1.2-0.5c0.5-0.1,1-0.1,1.5-0.1c0.2,0,0.5,0,0.7,0c0.3,0,0.5,0.1,0.8,0.1V8.4c0-0.2,0-0.5-0.1-0.7
	c-0.1-0.2-0.2-0.4-0.3-0.6C85.2,7,85,6.8,84.8,6.8c-0.2-0.1-0.5-0.2-0.9-0.2c-0.5,0-0.9,0.1-1.4,0.1c-0.4,0.1-0.8,0.2-1,0.2
	l-0.3-1.7c0.3-0.1,0.7-0.2,1.2-0.3C83,4.8,83.5,4.8,84.1,4.8z M84.3,12.5c0.7,0,1.1,0,1.5-0.1v-2.2c-0.1,0-0.3-0.1-0.5-0.1
	c-0.2,0-0.5-0.1-0.7-0.1c-0.2,0-0.5,0-0.7,0.1c-0.2,0-0.5,0.1-0.7,0.2c-0.2,0.1-0.4,0.2-0.5,0.4c-0.1,0.2-0.2,0.3-0.2,0.5
	c0,0.5,0.2,0.8,0.5,1C83.3,12.4,83.8,12.5,84.3,12.5z M93,14.3c-3.5,0-3.5-2.8-3.5-3.3l0-10.1l2.1-0.3v10c0,0.3,0,1.9,1.4,1.9V14.3
	L93,14.3z"/>
<path id="Search-by" class="st0" d="M5.6,11.9c0,0.7-0.3,1.2-0.8,1.6s-1.2,0.6-2.1,0.6S1.1,14,0.5,13.7v-1.2
	c0.4,0.2,0.7,0.3,1.1,0.4S2.5,13,2.8,13c0.5,0,0.9-0.1,1.1-0.3s0.4-0.5,0.4-0.8c0-0.3-0.1-0.5-0.3-0.7s-0.7-0.4-1.4-0.7
	c-0.7-0.3-1.2-0.6-1.5-1S0.6,8.7,0.6,8.1c0-0.7,0.2-1.2,0.7-1.5S2.4,6,3.2,6C4,6,4.7,6.2,5.4,6.5L5,7.6C4.3,7.3,3.7,7.1,3.2,7.1
	c-0.4,0-0.7,0.1-0.9,0.3C2,7.6,1.9,7.8,1.9,8.1c0,0.2,0,0.4,0.1,0.5s0.2,0.3,0.4,0.4S3,9.4,3.5,9.6c0.6,0.2,1,0.5,1.3,0.7
	s0.5,0.4,0.6,0.7S5.6,11.5,5.6,11.9z M9.5,14.1c-0.9,0-1.6-0.3-2.2-0.8S6.6,12,6.6,11.1c0-1,0.2-1.7,0.7-2.3S8.5,8,9.3,8
	c0.8,0,1.4,0.2,1.9,0.7s0.7,1.1,0.7,2v0.7h-4c0,0.6,0.2,1,0.5,1.3s0.7,0.5,1.2,0.5c0.4,0,0.7,0,1-0.1s0.6-0.2,1-0.3v1
	c-0.3,0.1-0.6,0.3-0.9,0.3S9.9,14.1,9.5,14.1z M9.3,8.9c-0.4,0-0.7,0.1-1,0.4S8,9.9,7.9,10.4h2.7c0-0.5-0.1-0.9-0.4-1.1
	S9.7,8.9,9.3,8.9z M17,14l-0.3-0.8h0c-0.3,0.4-0.6,0.6-0.9,0.7s-0.7,0.2-1.1,0.2c-0.6,0-1-0.2-1.4-0.5s-0.5-0.8-0.5-1.3
	c0-0.6,0.2-1.1,0.7-1.4s1.1-0.5,2.1-0.5l1,0v-0.3c0-0.4-0.1-0.7-0.3-0.9s-0.5-0.3-0.8-0.3c-0.3,0-0.6,0-0.9,0.1
	c-0.3,0.1-0.5,0.2-0.8,0.3l-0.4-0.9c0.3-0.2,0.7-0.3,1.1-0.4S15.3,8,15.6,8c0.8,0,1.3,0.2,1.7,0.5s0.6,0.8,0.6,1.6v4H17z M15.1,13.1
	c0.5,0,0.8-0.1,1.1-0.4s0.4-0.6,0.4-1.1v-0.5l-0.8,0c-0.6,0-1,0.1-1.3,0.3s-0.4,0.4-0.4,0.8c0,0.3,0.1,0.5,0.2,0.6
	S14.8,13.1,15.1,13.1z M22.7,8c0.3,0,0.5,0,0.6,0.1l-0.1,1.2c-0.2,0-0.4-0.1-0.6-0.1c-0.5,0-0.9,0.2-1.2,0.5s-0.5,0.8-0.5,1.3V14
	h-1.3V8.1h1l0.2,1h0.1c0.2-0.4,0.5-0.6,0.8-0.8S22.3,8,22.7,8z M26.8,14.1c-0.9,0-1.6-0.3-2-0.8s-0.7-1.3-0.7-2.3
	c0-1,0.2-1.8,0.7-2.3S26,8,26.9,8c0.6,0,1.2,0.1,1.7,0.3l-0.4,1c-0.5-0.2-1-0.3-1.3-0.3c-1,0-1.5,0.7-1.5,2c0,0.7,0.1,1.2,0.4,1.5
	s0.6,0.5,1.1,0.5c0.6,0,1.1-0.1,1.6-0.4v1.1C28.2,13.9,28,14,27.7,14S27.2,14.1,26.8,14.1z M35.1,14h-1.3v-3.7c0-0.5-0.1-0.8-0.3-1
	S33.1,9,32.7,9c-0.5,0-0.9,0.2-1.2,0.5s-0.4,0.8-0.4,1.6V14h-1.3V5.6h1.3v2.1c0,0.3,0,0.7-0.1,1.1h0.1c0.2-0.3,0.4-0.5,0.7-0.7
	C32.2,8,32.5,8,32.9,8c1.4,0,2.2,0.7,2.2,2.2V14z M42.7,8c0.7,0,1.3,0.3,1.7,0.8s0.6,1.3,0.6,2.3c0,1-0.2,1.7-0.6,2.3
	s-1,0.8-1.7,0.8c-0.8,0-1.3-0.3-1.8-0.8h-0.1L40.6,14h-0.9V5.6H41v2c0,0.1,0,0.4,0,0.7c0,0.3,0,0.5,0,0.6H41C41.4,8.2,42,8,42.7,8z
	 M42.4,9c-0.5,0-0.9,0.1-1.1,0.4S41,10.2,41,10.9V11c0,0.7,0.1,1.2,0.3,1.6s0.6,0.5,1.1,0.5c0.4,0,0.8-0.2,1-0.5s0.3-0.9,0.3-1.5
	C43.8,9.7,43.3,9,42.4,9z M45.6,8.1H47l1.2,3.4c0.2,0.5,0.3,0.9,0.4,1.4h0c0-0.2,0.1-0.4,0.2-0.7s0.5-1.6,1.4-4h1.4L49,14.8
	c-0.5,1.2-1.2,1.9-2.3,1.9c-0.3,0-0.6,0-0.8-0.1v-1c0.2,0,0.4,0.1,0.6,0.1c0.6,0,1-0.4,1.3-1.1L48,14L45.6,8.1z"/>
</svg>
